<svg width="44" height="44" viewBox="0 0 44 44" fill="none" xmlns="http://www.w3.org/2000/svg">
<g clip-path="url(#clip0_3661_264)">
<ellipse cx="22" cy="12" rx="12" ry="5" fill="#5865F2"/>
<g filter="url(#filter0_i_3661_264)">
<circle cx="22" cy="22" r="22" transform="matrix(1 0 0 -1 0 44)" fill="url(#paint0_linear_3661_264)"/>
</g>
<circle cx="22" cy="22" r="21" transform="matrix(1 0 0 -1 0 44)" stroke="url(#paint1_linear_3661_264)" stroke-width="2" style="mix-blend-mode:soft-light"/>
<path d="M29.6361 15.34C28.212 14.714 26.6892 14.259 25.0973 14C24.9018 14.3321 24.6734 14.7787 24.5159 15.1341C22.8236 14.895 21.1469 14.895 19.4857 15.1341C19.3283 14.7787 19.0946 14.3321 18.8974 14C17.3037 14.259 15.7793 14.7156 14.3552 15.3433C11.4828 19.4213 10.7041 23.3981 11.0934 27.3184C12.9986 28.6551 14.8449 29.467 16.66 29.9983C17.1082 29.4189 17.5079 28.8029 17.8523 28.1536C17.1964 27.9195 16.5683 27.6306 15.9748 27.2951C16.1323 27.1856 16.2863 27.071 16.4351 26.9531C20.0551 28.5438 23.9881 28.5438 27.5649 26.9531C27.7154 27.071 27.8694 27.1856 28.0251 27.2951C27.4299 27.6322 26.8 27.9211 26.1442 28.1553C26.4885 28.8029 26.8865 29.4205 27.3364 30C29.1533 29.4687 31.0013 28.6567 32.9065 27.3184C33.3633 22.7738 32.1261 18.8335 29.6361 15.34ZM18.3454 24.9075C17.2587 24.9075 16.3676 23.9543 16.3676 22.7937C16.3676 21.6331 17.2397 20.6783 18.3454 20.6783C19.4511 20.6783 20.3422 21.6314 20.3232 22.7937C20.325 23.9543 19.4511 24.9075 18.3454 24.9075ZM25.6545 24.9075C24.5678 24.9075 23.6767 23.9543 23.6767 22.7937C23.6767 21.6331 24.5488 20.6783 25.6545 20.6783C26.7602 20.6783 27.6514 21.6314 27.6323 22.7937C27.6323 23.9543 26.7602 24.9075 25.6545 24.9075Z" fill="#5865F2"/>
</g>
<rect x="0.5" y="0.5" width="43" height="43" rx="21.5" stroke="url(#paint2_linear_3661_264)" stroke-opacity="0.32"/>
<defs>
<filter id="filter0_i_3661_264" x="0" y="0" width="44" height="44" filterUnits="userSpaceOnUse" color-interpolation-filters="sRGB">
<feFlood flood-opacity="0" result="BackgroundImageFix"/>
<feBlend mode="normal" in="SourceGraphic" in2="BackgroundImageFix" result="shape"/>
<feColorMatrix in="SourceAlpha" type="matrix" values="0 0 0 0 0 0 0 0 0 0 0 0 0 0 0 0 0 0 127 0" result="hardAlpha"/>
<feMorphology radius="5.6" operator="erode" in="SourceAlpha" result="effect1_innerShadow_3661_264"/>
<feOffset/>
<feGaussianBlur stdDeviation="6.4"/>
<feComposite in2="hardAlpha" operator="arithmetic" k2="-1" k3="1"/>
<feColorMatrix type="matrix" values="0 0 0 0 0.345098 0 0 0 0 0.396078 0 0 0 0 0.94902 0 0 0 0.04 0"/>
<feBlend mode="normal" in2="shape" result="effect1_innerShadow_3661_264"/>
</filter>
<linearGradient id="paint0_linear_3661_264" x1="22" y1="44" x2="22" y2="0" gradientUnits="userSpaceOnUse">
<stop stop-color="#E6E7FD"/>
<stop offset="1" stop-color="#F4F4FE"/>
</linearGradient>
<linearGradient id="paint1_linear_3661_264" x1="14.7093" y1="0" x2="14.7093" y2="44" gradientUnits="userSpaceOnUse">
<stop stop-color="white"/>
<stop offset="1" stop-color="white" stop-opacity="0.49"/>
</linearGradient>
<linearGradient id="paint2_linear_3661_264" x1="22" y1="0" x2="22" y2="44" gradientUnits="userSpaceOnUse">
<stop stop-color="#5865F2"/>
<stop offset="1" stop-color="#5865F2" stop-opacity="0.52"/>
</linearGradient>
<clipPath id="clip0_3661_264">
<rect width="44" height="44" rx="22" fill="white"/>
</clipPath>
</defs>
</svg>
