<svg width="44" height="44" viewBox="0 0 44 44" fill="none" xmlns="http://www.w3.org/2000/svg">
<g clip-path="url(#clip0_3661_268)">
<ellipse cx="22" cy="12" rx="12" ry="5" fill="#4680C2"/>
<g filter="url(#filter0_i_3661_268)">
<circle cx="22" cy="22" r="22" transform="matrix(1 0 0 -1 0 44)" fill="url(#paint0_linear_3661_268)"/>
</g>
<circle cx="22" cy="22" r="21" transform="matrix(1 0 0 -1 0 44)" stroke="url(#paint1_linear_3661_268)" stroke-width="2" style="mix-blend-mode:soft-light"/>
<path d="M33.4569 15.9625C33.1869 16.7946 32.8228 17.5189 32.3667 18.1766L32.3857 18.1472C31.9377 18.879 31.4026 19.7245 30.7805 20.6837C30.247 21.441 29.9647 21.8331 29.9333 21.8598C29.7953 22.0294 29.6993 22.2372 29.6663 22.4656L29.6653 22.4724C29.6923 22.6802 29.7903 22.8615 29.9333 22.9968L30.3334 23.4339C32.4737 25.5895 33.6776 27.0754 33.945 27.8915C33.98 27.9817 34 28.0855 34 28.1943C34 28.3845 33.938 28.5599 33.833 28.704L33.835 28.7011C33.6589 28.8785 33.4129 28.9882 33.1409 28.9882C33.1109 28.9882 33.0798 28.9873 33.0508 28.9843H33.0548H30.4234C30.4224 28.9843 30.4204 28.9843 30.4184 28.9843C30.0813 28.9843 29.7713 28.8687 29.5283 28.6766L29.5313 28.6785C29.1772 28.3933 28.8621 28.0846 28.5801 27.7494L28.5711 27.7376C28.1103 27.2273 27.7016 26.7977 27.3449 26.4488C26.1567 25.3419 25.2799 24.7884 24.7145 24.7884C24.6934 24.7865 24.6694 24.7855 24.6444 24.7855C24.4794 24.7855 24.3254 24.8355 24.1984 24.9207L24.2014 24.9188C24.0973 25.0462 24.0343 25.2109 24.0343 25.3883C24.0343 25.4236 24.0363 25.4569 24.0413 25.4912V25.4873C24.0143 25.795 23.9983 26.1528 23.9983 26.5144C23.9983 26.6311 24.0003 26.7467 24.0033 26.8624V26.8457V27.9817C24.0133 28.0277 24.0193 28.0806 24.0193 28.1346C24.0193 28.3717 23.9093 28.5835 23.7373 28.7236L23.7363 28.7246C23.3492 28.8981 22.8971 29 22.4201 29C22.3181 29 22.218 28.9951 22.119 28.9863L22.132 28.9873C20.5578 28.9579 19.0975 28.506 17.8563 27.7445L17.8913 27.7641C16.3801 26.8643 15.1279 25.6931 14.1737 24.3092L14.1467 24.268C13.2405 23.0899 12.3954 21.7589 11.6753 20.3554L11.6053 20.2044C11.1842 19.4184 10.7481 18.452 10.3721 17.4581L10.3121 17.2768C10.159 16.8299 10.048 16.3104 10.002 15.7723L10 15.7478C10 15.2525 10.2974 15.0049 10.8921 15.0049H13.5226C13.5466 15.0029 13.5746 15.002 13.6036 15.002C13.8516 15.002 14.0807 15.0853 14.2617 15.2254L14.2597 15.2235C14.4597 15.4381 14.6078 15.7018 14.6808 15.9958L14.6838 16.0076C15.1679 17.3474 15.6809 18.4726 16.271 19.5507L16.204 19.4164C16.6861 20.3671 17.2192 21.1855 17.8273 21.9412L17.8043 21.9108C18.3377 22.5525 18.7538 22.8733 19.0525 22.8733C19.0615 22.8743 19.0725 22.8743 19.0845 22.8743C19.2325 22.8743 19.3616 22.7959 19.4316 22.6782L19.4326 22.6763C19.5066 22.4901 19.5496 22.2735 19.5496 22.048C19.5496 22 19.5476 21.952 19.5436 21.9049V21.9108V18.1089C19.5226 17.661 19.4106 17.2425 19.2235 16.8671L19.2315 16.8857C19.1075 16.627 18.9585 16.4035 18.7815 16.2046L18.7845 16.2085C18.6204 16.0477 18.5084 15.837 18.4734 15.6018L18.4724 15.5959C18.4724 15.4293 18.5504 15.2793 18.6724 15.1813L18.6734 15.1803C18.7945 15.0715 18.9565 15.0059 19.1335 15.0059H19.1415H23.2882C23.3102 15.0029 23.3352 15.002 23.3612 15.002C23.5563 15.002 23.7313 15.0882 23.8473 15.2235L23.8483 15.2244C23.9513 15.4087 24.0123 15.6292 24.0123 15.8625C24.0123 15.8997 24.0103 15.936 24.0073 15.9723V15.9674V21.0375C24.0053 21.061 24.0043 21.0885 24.0043 21.1159C24.0043 21.2963 24.0553 21.4658 24.1434 21.6099L24.1414 21.606C24.2144 21.7118 24.3364 21.7805 24.4744 21.7805C24.6504 21.7687 24.8115 21.7118 24.9465 21.6217L24.9435 21.6236C25.2155 21.4404 25.4496 21.2316 25.6526 20.9954L25.6566 20.9905C26.2637 20.3181 26.8238 19.5752 27.3119 18.7852L27.3509 18.7166C27.6949 18.1579 28.067 17.4699 28.4041 16.7632L28.4661 16.6192L28.9122 15.7449C29.0672 15.3078 29.4832 15 29.9723 15C29.9913 15 30.0103 15 30.0293 15.001H30.0263H32.6578C33.3686 15.001 33.6353 15.3215 33.4579 15.9625H33.4569Z" fill="#4680C2"/>
</g>
<rect x="0.5" y="0.5" width="43" height="43" rx="21.5" stroke="url(#paint2_linear_3661_268)" stroke-opacity="0.32"/>
<defs>
<filter id="filter0_i_3661_268" x="0" y="0" width="44" height="44" filterUnits="userSpaceOnUse" color-interpolation-filters="sRGB">
<feFlood flood-opacity="0" result="BackgroundImageFix"/>
<feBlend mode="normal" in="SourceGraphic" in2="BackgroundImageFix" result="shape"/>
<feColorMatrix in="SourceAlpha" type="matrix" values="0 0 0 0 0 0 0 0 0 0 0 0 0 0 0 0 0 0 127 0" result="hardAlpha"/>
<feMorphology radius="5.6" operator="erode" in="SourceAlpha" result="effect1_innerShadow_3661_268"/>
<feOffset/>
<feGaussianBlur stdDeviation="6.4"/>
<feComposite in2="hardAlpha" operator="arithmetic" k2="-1" k3="1"/>
<feColorMatrix type="matrix" values="0 0 0 0 0.27451 0 0 0 0 0.501961 0 0 0 0 0.760784 0 0 0 0.04 0"/>
<feBlend mode="normal" in2="shape" result="effect1_innerShadow_3661_268"/>
</filter>
<linearGradient id="paint0_linear_3661_268" x1="22" y1="44" x2="22" y2="0" gradientUnits="userSpaceOnUse">
<stop stop-color="#DFEAF5"/>
<stop offset="1" stop-color="#F2F7FB"/>
</linearGradient>
<linearGradient id="paint1_linear_3661_268" x1="14.7093" y1="0" x2="14.7093" y2="44" gradientUnits="userSpaceOnUse">
<stop stop-color="white"/>
<stop offset="1" stop-color="white" stop-opacity="0.49"/>
</linearGradient>
<linearGradient id="paint2_linear_3661_268" x1="22" y1="0" x2="22" y2="44" gradientUnits="userSpaceOnUse">
<stop stop-color="#4680C2"/>
<stop offset="1" stop-color="#4680C2" stop-opacity="0.52"/>
</linearGradient>
<clipPath id="clip0_3661_268">
<rect width="44" height="44" rx="22" fill="white"/>
</clipPath>
</defs>
</svg>
