<svg width="44" height="44" viewBox="0 0 44 44" fill="none" xmlns="http://www.w3.org/2000/svg">
<g clip-path="url(#clip0_3661_260)">
<ellipse cx="22" cy="12" rx="12" ry="5" fill="#23A5E6"/>
<g filter="url(#filter0_i_3661_260)">
<circle cx="22" cy="22" r="22" transform="matrix(1 0 0 -1 0 44)" fill="url(#paint0_linear_3661_260)"/>
</g>
<circle cx="22" cy="22" r="21" transform="matrix(1 0 0 -1 0 44)" stroke="url(#paint1_linear_3661_260)" stroke-width="2" style="mix-blend-mode:soft-light"/>
<path d="M30.9832 15.3815C31.139 14.4609 30.1817 13.7343 29.2865 14.0937L11.456 21.2512C10.814 21.5089 10.861 22.3981 11.5268 22.5919L15.2039 23.6625C15.9057 23.8669 16.6656 23.7611 17.2785 23.3741L25.5687 18.1375C25.8187 17.9795 26.0912 18.3046 25.8776 18.5058L19.9101 24.131C19.3312 24.6767 19.4461 25.6014 20.1425 26.0006L26.8237 29.8312C27.5731 30.2608 28.5371 29.8293 28.6772 29.0013L30.9832 15.3815Z" fill="#37BBFE"/>
</g>
<rect x="0.5" y="0.5" width="43" height="43" rx="21.5" stroke="url(#paint2_linear_3661_260)" stroke-opacity="0.32"/>
<defs>
<filter id="filter0_i_3661_260" x="0" y="0" width="44" height="44" filterUnits="userSpaceOnUse" color-interpolation-filters="sRGB">
<feFlood flood-opacity="0" result="BackgroundImageFix"/>
<feBlend mode="normal" in="SourceGraphic" in2="BackgroundImageFix" result="shape"/>
<feColorMatrix in="SourceAlpha" type="matrix" values="0 0 0 0 0 0 0 0 0 0 0 0 0 0 0 0 0 0 127 0" result="hardAlpha"/>
<feMorphology radius="5.6" operator="erode" in="SourceAlpha" result="effect1_innerShadow_3661_260"/>
<feOffset/>
<feGaussianBlur stdDeviation="6.4"/>
<feComposite in2="hardAlpha" operator="arithmetic" k2="-1" k3="1"/>
<feColorMatrix type="matrix" values="0 0 0 0 0.137255 0 0 0 0 0.647059 0 0 0 0 0.901961 0 0 0 0.04 0"/>
<feBlend mode="normal" in2="shape" result="effect1_innerShadow_3661_260"/>
</filter>
<linearGradient id="paint0_linear_3661_260" x1="22" y1="44" x2="22" y2="0" gradientUnits="userSpaceOnUse">
<stop stop-color="#D8EFFB"/>
<stop offset="1" stop-color="#F0F9FD"/>
</linearGradient>
<linearGradient id="paint1_linear_3661_260" x1="14.7093" y1="0" x2="14.7093" y2="44" gradientUnits="userSpaceOnUse">
<stop stop-color="white"/>
<stop offset="1" stop-color="white" stop-opacity="0.49"/>
</linearGradient>
<linearGradient id="paint2_linear_3661_260" x1="22" y1="0" x2="22" y2="44" gradientUnits="userSpaceOnUse">
<stop stop-color="#23A5E6"/>
<stop offset="1" stop-color="#23A5E6" stop-opacity="0.52"/>
</linearGradient>
<clipPath id="clip0_3661_260">
<rect width="44" height="44" rx="22" fill="white"/>
</clipPath>
</defs>
</svg>
