<svg width="12" height="12" viewBox="0 0 12 12" fill="none" xmlns="http://www.w3.org/2000/svg">
<path fill-rule="evenodd" clip-rule="evenodd" d="M8.19183 1.20476C8.06397 1.07689 7.94518 0.958071 7.83907 0.869619C7.72804 0.77707 7.57906 0.672014 7.38408 0.632488C7.1258 0.580131 6.8573 0.631839 6.63695 0.776372C6.47059 0.885487 6.37128 1.03836 6.30257 1.16552C6.2369 1.28706 6.17073 1.44149 6.09951 1.6077L5.5572 2.87309C5.54503 2.9015 5.53906 2.91535 5.5345 2.92535L5.53419 2.92603L5.53368 2.92657C5.52609 2.93451 5.51544 2.9452 5.49359 2.96705L4.71315 3.74749C4.679 3.78164 4.66213 3.79841 4.64947 3.81023L4.64857 3.81107L4.64737 3.81135C4.63051 3.81533 4.6072 3.82007 4.55985 3.82954L2.70642 4.20022C2.48657 4.24418 2.28888 4.2837 2.1337 4.3298C1.9784 4.37593 1.77779 4.45181 1.62607 4.62279C1.432 4.8415 1.34338 5.13419 1.38354 5.42382C1.41493 5.65025 1.53976 5.82466 1.64339 5.94919C1.74693 6.07362 1.88949 6.21617 2.04804 6.37468L3.48119 7.80784L1.00631 10.2827C0.811048 10.478 0.811048 10.7946 1.00631 10.9898C1.20157 11.1851 1.51815 11.1851 1.71342 10.9898L4.18829 8.51494L5.62149 9.94814C5.78001 10.1067 5.92255 10.2492 6.04699 10.3528C6.17152 10.4564 6.34593 10.5812 6.57235 10.6126C6.86198 10.6528 7.15467 10.5642 7.37338 10.3701C7.54437 10.2184 7.62024 10.0178 7.66637 9.86248C7.71247 9.70729 7.752 9.5096 7.79595 9.28975L8.16664 7.43633C8.17611 7.38897 8.18084 7.36566 8.18482 7.34881L8.18511 7.34761L8.18595 7.34671C8.19776 7.33404 8.21453 7.31717 8.24868 7.28303L9.02912 6.50258C9.05098 6.48073 9.06166 6.47009 9.0696 6.4625L9.07015 6.46198L9.07082 6.46167C9.08082 6.45711 9.09467 6.45115 9.12308 6.43897L10.3885 5.89667C10.5547 5.82545 10.7091 5.75928 10.8307 5.69361C10.9578 5.6249 11.1107 5.52559 11.2198 5.35923C11.3643 5.13887 11.416 4.87037 11.3637 4.6121C11.3242 4.41711 11.2191 4.26813 11.1266 4.15711C11.0381 4.05099 10.9193 3.9322 10.7914 3.80435L8.19183 1.20476Z" fill="#F89E17"/>
</svg>
