<svg width="18" height="18" viewBox="0 0 18 18" fill="none" xmlns="http://www.w3.org/2000/svg">
<path d="M14.1621 8.45801C14.7924 8.36749 15.4042 8.44646 15.9961 8.78613C16.5884 9.12603 17.1626 9.72824 17.7158 10.6875C18.0427 11.4355 18.0394 11.9728 17.8398 12.3584C17.6398 12.7449 17.2392 12.9857 16.7578 13.1318C15.795 13.4241 14.5261 13.3341 13.958 13.3037L11.835 13.1641L11.8193 13.1631L11.8135 13.1768L10.8701 15.083C10.6124 15.5905 10.0548 16.7359 9.32031 17.4248C8.95331 17.769 8.54553 17.9963 8.11133 17.9766C7.73185 17.9593 7.3268 17.7533 6.90723 17.2607L6.72656 17.0322C6.17419 16.0738 5.94108 15.2754 5.94336 14.5928C5.94574 13.9102 6.18355 13.3405 6.57715 12.8398C6.97126 12.3387 7.52196 11.906 8.14844 11.498C8.775 11.09 9.47604 10.7079 10.1719 10.3057C10.8677 9.90341 11.5494 9.48634 12.2158 9.14746C12.882 8.80875 13.5314 8.5486 14.1621 8.45801ZM3.68164 1.52637C3.55632 0.356482 4.877 -0.407186 5.82617 0.286133L9.29785 2.82324L9.30957 2.83203L9.32227 2.82324C10.4355 2.11359 11.6563 1.39499 12.6885 1.06055C13.2044 0.893423 13.671 0.823539 14.0527 0.896484C14.433 0.969156 14.7302 1.1841 14.9102 1.5918C15.0485 1.9052 15.0937 2.47505 14.8975 3.21191C14.7014 3.94797 14.265 4.84904 13.4453 5.82422C12.5859 6.84656 11.3048 7.95031 9.43652 9.03027C7.56996 10.1093 5.9754 10.668 4.66211 10.9023C3.40768 11.1261 2.4091 11.0544 1.67383 10.8564C0.938057 10.6583 0.46769 10.3343 0.265625 10.0576C0.00287843 9.69763 -0.0346114 9.33199 0.0927734 8.96582C0.220817 8.59803 0.515807 8.22836 0.918945 7.86426C1.72519 7.13613 2.95799 6.43676 4.12891 5.82617L4.1416 5.81934L4.14062 5.80469L3.68164 1.52637Z" fill="url(#paint0_radial_147_1606)"/>
<path d="M14.1621 8.45801C14.7924 8.36749 15.4042 8.44646 15.9961 8.78613C16.5884 9.12603 17.1626 9.72824 17.7158 10.6875C18.0427 11.4355 18.0394 11.9728 17.8398 12.3584C17.6398 12.7449 17.2392 12.9857 16.7578 13.1318C15.795 13.4241 14.5261 13.3341 13.958 13.3037L11.835 13.1641L11.8193 13.1631L11.8135 13.1768L10.8701 15.083C10.6124 15.5905 10.0548 16.7359 9.32031 17.4248C8.95331 17.769 8.54553 17.9963 8.11133 17.9766C7.73185 17.9593 7.3268 17.7533 6.90723 17.2607L6.72656 17.0322C6.17419 16.0738 5.94108 15.2754 5.94336 14.5928C5.94574 13.9102 6.18355 13.3405 6.57715 12.8398C6.97126 12.3387 7.52196 11.906 8.14844 11.498C8.775 11.09 9.47604 10.7079 10.1719 10.3057C10.8677 9.90341 11.5494 9.48634 12.2158 9.14746C12.882 8.80875 13.5314 8.5486 14.1621 8.45801ZM3.68164 1.52637C3.55632 0.356482 4.877 -0.407186 5.82617 0.286133L9.29785 2.82324L9.30957 2.83203L9.32227 2.82324C10.4355 2.11359 11.6563 1.39499 12.6885 1.06055C13.2044 0.893423 13.671 0.823539 14.0527 0.896484C14.433 0.969156 14.7302 1.1841 14.9102 1.5918C15.0485 1.9052 15.0937 2.47505 14.8975 3.21191C14.7014 3.94797 14.265 4.84904 13.4453 5.82422C12.5859 6.84656 11.3048 7.95031 9.43652 9.03027C7.56996 10.1093 5.9754 10.668 4.66211 10.9023C3.40768 11.1261 2.4091 11.0544 1.67383 10.8564C0.938057 10.6583 0.46769 10.3343 0.265625 10.0576C0.00287843 9.69763 -0.0346114 9.33199 0.0927734 8.96582C0.220817 8.59803 0.515807 8.22836 0.918945 7.86426C1.72519 7.13613 2.95799 6.43676 4.12891 5.82617L4.1416 5.81934L4.14062 5.80469L3.68164 1.52637Z" stroke="url(#paint1_radial_147_1606)" stroke-width="0.044256" style="mix-blend-mode:soft-light"/>
<defs>
<radialGradient id="paint0_radial_147_1606" cx="0" cy="0" r="1" gradientUnits="userSpaceOnUse" gradientTransform="translate(9 -1.17078e-06) rotate(106.187) scale(19.6614)">
<stop stop-color="#3DC5FF"/>
<stop offset="1" stop-color="#0032E1"/>
</radialGradient>
<radialGradient id="paint1_radial_147_1606" cx="0" cy="0" r="1" gradientUnits="userSpaceOnUse" gradientTransform="translate(11.0199 3.8342) rotate(166.28) scale(9.49109 9.30322)">
<stop stop-color="white"/>
<stop offset="1" stop-color="white" stop-opacity="0.35"/>
</radialGradient>
</defs>
</svg>
