<svg width="41" height="22" viewBox="0 0 41 22" fill="none" xmlns="http://www.w3.org/2000/svg">
<rect width="41" height="22" rx="6" fill="#FFE600" fill-opacity="0.08"/>
<path d="M4.67844 13.3807V12.1236L8.38157 6.27273H9.42987V8.0625H8.79066L6.29776 12.0128V12.081L11.4668 12.081L11.4668 13.3807L4.67844 13.3807ZM8.8418 15V12.9972L8.85884 12.4347L8.85884 6.27273H10.3503L10.3503 15H8.8418ZM13.5495 15.0937C13.291 15.0937 13.0694 15.0028 12.8848 14.821C12.7001 14.6392 12.6092 14.4176 12.612 14.1562C12.6092 13.9006 12.7001 13.6818 12.8848 13.5C13.0694 13.3182 13.291 13.2273 13.5495 13.2273C13.7995 13.2273 14.0169 13.3182 14.2015 13.5C14.389 13.6818 14.4842 13.9006 14.487 14.1562C14.4842 14.3295 14.4387 14.4872 14.3507 14.6293C14.2654 14.7713 14.1518 14.8849 14.0098 14.9702C13.8706 15.0526 13.7172 15.0937 13.5495 15.0937ZM18.9636 6.15341C19.3812 6.15625 19.7875 6.23011 20.1824 6.375C20.5801 6.51705 20.938 6.75 21.2562 7.07386C21.5744 7.39489 21.8272 7.82528 22.0147 8.36506C22.2022 8.90483 22.296 9.57244 22.296 10.3679C22.2988 11.1179 22.2193 11.7884 22.0574 12.3793C21.8983 12.9673 21.6696 13.4645 21.3713 13.8707C21.073 14.277 20.7136 14.5866 20.2931 14.7997C19.8727 15.0128 19.3997 15.1193 18.8741 15.1193C18.323 15.1193 17.8343 15.0114 17.4082 14.7955C16.9849 14.5795 16.6426 14.2841 16.3812 13.9091C16.1199 13.5341 15.9593 13.1051 15.8997 12.6222H17.4551C17.5346 12.9687 17.6966 13.2443 17.9409 13.4489C18.188 13.6506 18.4991 13.7514 18.8741 13.7514C19.4792 13.7514 19.9451 13.4886 20.2718 12.9631C20.5985 12.4375 20.7619 11.7074 20.7619 10.7727H20.7022C20.563 11.0227 20.3826 11.2386 20.161 11.4205C19.9395 11.5994 19.688 11.7372 19.4068 11.8338C19.1284 11.9304 18.8329 11.9787 18.5204 11.9787C18.0091 11.9787 17.5488 11.8565 17.1397 11.6122C16.7335 11.3679 16.411 11.0327 16.1724 10.6065C15.9366 10.1804 15.8173 9.69318 15.8145 9.14489C15.8145 8.5767 15.9451 8.06676 16.2065 7.61506C16.4707 7.16051 16.8386 6.80256 17.3102 6.54119C17.7818 6.27699 18.3329 6.14773 18.9636 6.15341ZM18.9679 7.43182C18.661 7.43182 18.3841 7.5071 18.1369 7.65767C17.8926 7.8054 17.6994 8.0071 17.5574 8.26278C17.4181 8.51562 17.3485 8.7983 17.3485 9.1108C17.3514 9.42045 17.421 9.7017 17.5574 9.95455C17.6966 10.2074 17.8855 10.4077 18.1241 10.5554C18.3656 10.7031 18.6412 10.777 18.9508 10.777C19.1809 10.777 19.3954 10.733 19.5943 10.6449C19.7931 10.5568 19.9664 10.4347 20.1142 10.2784C20.2647 10.1193 20.3812 9.93892 20.4636 9.73722C20.5488 9.53551 20.59 9.32244 20.5872 9.09801C20.5872 8.79972 20.5162 8.52415 20.3741 8.27131C20.2349 8.01847 20.0431 7.81534 19.7988 7.66193C19.5574 7.50852 19.2804 7.43182 18.9679 7.43182Z" fill="#E1B000"/>
<path d="M31.3228 5.88795C31.1186 5.7906 30.8814 5.7906 30.6772 5.88795C30.5007 5.97211 30.4034 6.11823 30.3543 6.19839C30.3036 6.28126 30.2515 6.38682 30.2007 6.48972L29.1229 8.67336L26.7119 9.02577C26.5984 9.04233 26.4819 9.05933 26.3874 9.08204C26.2961 9.10402 26.1271 9.15154 25.9927 9.29346C25.8371 9.45765 25.764 9.68325 25.7936 9.90747C25.8192 10.1013 25.9281 10.2389 25.9892 10.3103C26.0523 10.3841 26.1367 10.4662 26.2189 10.5463L27.9628 12.2448L27.5513 14.6439C27.5318 14.7571 27.5119 14.8731 27.5042 14.97C27.4968 15.0637 27.4897 15.2392 27.583 15.411C27.691 15.6098 27.8829 15.7492 28.1054 15.7905C28.2977 15.8261 28.4623 15.7651 28.5491 15.729C28.6389 15.6918 28.7431 15.637 28.8447 15.5835L31 14.4501L33.1554 15.5835C33.2569 15.637 33.3611 15.6918 33.4509 15.729C33.5377 15.7651 33.7024 15.8261 33.8947 15.7905C34.1171 15.7492 34.309 15.6098 34.417 15.411C34.5104 15.2392 34.5032 15.0637 34.4958 14.97C34.4881 14.8731 34.4682 14.7571 34.4488 14.644L34.0373 12.2448L35.7812 10.5462C35.8634 10.4662 35.9477 10.3841 36.0108 10.3103C36.0719 10.2389 36.1809 10.1013 36.2065 9.90747C36.2361 9.68325 36.1629 9.45765 36.0074 9.29346C35.8729 9.15154 35.704 9.10402 35.6126 9.08204C35.5181 9.05933 35.4017 9.04233 35.2882 9.02577L32.8771 8.67336L31.7993 6.48976C31.7485 6.38686 31.6964 6.28127 31.6457 6.19839C31.5966 6.11823 31.4993 5.97211 31.3228 5.88795Z" fill="#E1B000"/>
</svg>
